<mxfile host="app.diagrams.net" modified="2022-09-16T10:41:30.699Z" agent="5.0 (Windows NT 10.0; Win64; x64) AppleWebKit/537.36 (KHTML, like Gecko) Chrome/105.0.0.0 Safari/537.36" etag="LyuVSDvbd0KZix3_FPrR" version="20.3.1" type="github">
  <diagram id="4d0IGksZrAZAaGU-BNTm" name="Page-1">
    <mxGraphModel dx="1635" dy="913" grid="1" gridSize="10" guides="1" tooltips="1" connect="1" arrows="1" fold="1" page="1" pageScale="1" pageWidth="850" pageHeight="1100" math="0" shadow="0">
      <root>
        <mxCell id="0" />
        <mxCell id="1" parent="0" />
        <mxCell id="fX-Yq12S8NMqzlMYQAEy-21" value="" style="rounded=0;whiteSpace=wrap;html=1;fillColor=#FFFFFF;" vertex="1" parent="1">
          <mxGeometry x="40" y="50" width="790" height="580" as="geometry" />
        </mxCell>
        <mxCell id="fX-Yq12S8NMqzlMYQAEy-6" style="edgeStyle=orthogonalEdgeStyle;rounded=0;orthogonalLoop=1;jettySize=auto;html=1;" edge="1" parent="1" source="fX-Yq12S8NMqzlMYQAEy-1" target="fX-Yq12S8NMqzlMYQAEy-3">
          <mxGeometry relative="1" as="geometry" />
        </mxCell>
        <mxCell id="fX-Yq12S8NMqzlMYQAEy-1" value="EAI" style="rounded=0;whiteSpace=wrap;html=1;" vertex="1" parent="1">
          <mxGeometry x="80" y="140" width="120" height="60" as="geometry" />
        </mxCell>
        <mxCell id="fX-Yq12S8NMqzlMYQAEy-7" style="edgeStyle=orthogonalEdgeStyle;rounded=0;orthogonalLoop=1;jettySize=auto;html=1;entryX=-0.099;entryY=0.495;entryDx=0;entryDy=0;entryPerimeter=0;" edge="1" parent="1" source="fX-Yq12S8NMqzlMYQAEy-2" target="fX-Yq12S8NMqzlMYQAEy-3">
          <mxGeometry relative="1" as="geometry" />
        </mxCell>
        <mxCell id="fX-Yq12S8NMqzlMYQAEy-2" value="Midway" style="rounded=0;whiteSpace=wrap;html=1;" vertex="1" parent="1">
          <mxGeometry x="80" y="240" width="120" height="60" as="geometry" />
        </mxCell>
        <mxCell id="fX-Yq12S8NMqzlMYQAEy-3" value="F5" style="ellipse;whiteSpace=wrap;html=1;aspect=fixed;fillColor=#33FF33;" vertex="1" parent="1">
          <mxGeometry x="310" y="180" width="80" height="80" as="geometry" />
        </mxCell>
        <mxCell id="fX-Yq12S8NMqzlMYQAEy-18" style="edgeStyle=orthogonalEdgeStyle;rounded=0;orthogonalLoop=1;jettySize=auto;html=1;entryX=0.5;entryY=0;entryDx=0;entryDy=0;" edge="1" parent="1" source="fX-Yq12S8NMqzlMYQAEy-5" target="fX-Yq12S8NMqzlMYQAEy-12">
          <mxGeometry relative="1" as="geometry" />
        </mxCell>
        <mxCell id="fX-Yq12S8NMqzlMYQAEy-5" value="CCMS port 7000&lt;br&gt;CCMS port 7001&lt;br&gt;CCMS port 7002&lt;br&gt;CCMS port 7003&lt;br&gt;CCMS port 7100&lt;br&gt;CCMS port 7101&lt;br&gt;CCMS port 7102&lt;br&gt;CCMS port 7103" style="rounded=0;whiteSpace=wrap;html=1;" vertex="1" parent="1">
          <mxGeometry x="510" y="140" width="210" height="170" as="geometry" />
        </mxCell>
        <mxCell id="fX-Yq12S8NMqzlMYQAEy-8" value="" style="endArrow=classic;html=1;rounded=0;entryX=0;entryY=0.25;entryDx=0;entryDy=0;" edge="1" parent="1" target="fX-Yq12S8NMqzlMYQAEy-5">
          <mxGeometry width="50" height="50" relative="1" as="geometry">
            <mxPoint x="390" y="220" as="sourcePoint" />
            <mxPoint x="440" y="170" as="targetPoint" />
          </mxGeometry>
        </mxCell>
        <mxCell id="fX-Yq12S8NMqzlMYQAEy-10" value="" style="endArrow=classic;html=1;rounded=0;exitX=1;exitY=0.5;exitDx=0;exitDy=0;" edge="1" parent="1" source="fX-Yq12S8NMqzlMYQAEy-3">
          <mxGeometry width="50" height="50" relative="1" as="geometry">
            <mxPoint x="400" y="277.5" as="sourcePoint" />
            <mxPoint x="510" y="220" as="targetPoint" />
          </mxGeometry>
        </mxCell>
        <mxCell id="fX-Yq12S8NMqzlMYQAEy-11" value="" style="endArrow=classic;html=1;rounded=0;exitX=1;exitY=0.5;exitDx=0;exitDy=0;" edge="1" parent="1" source="fX-Yq12S8NMqzlMYQAEy-3">
          <mxGeometry width="50" height="50" relative="1" as="geometry">
            <mxPoint x="390" y="340" as="sourcePoint" />
            <mxPoint x="510" y="260" as="targetPoint" />
          </mxGeometry>
        </mxCell>
        <mxCell id="fX-Yq12S8NMqzlMYQAEy-12" value="F5&lt;br&gt;HSM" style="ellipse;whiteSpace=wrap;html=1;aspect=fixed;" vertex="1" parent="1">
          <mxGeometry x="575" y="370" width="80" height="80" as="geometry" />
        </mxCell>
        <mxCell id="fX-Yq12S8NMqzlMYQAEy-13" value="HSM1" style="rounded=0;whiteSpace=wrap;html=1;" vertex="1" parent="1">
          <mxGeometry x="445" y="500" width="120" height="60" as="geometry" />
        </mxCell>
        <mxCell id="fX-Yq12S8NMqzlMYQAEy-14" value="HSM2" style="rounded=0;whiteSpace=wrap;html=1;" vertex="1" parent="1">
          <mxGeometry x="665" y="500" width="120" height="60" as="geometry" />
        </mxCell>
        <mxCell id="fX-Yq12S8NMqzlMYQAEy-15" value="" style="endArrow=classic;html=1;rounded=0;exitX=0.5;exitY=1;exitDx=0;exitDy=0;entryX=0.5;entryY=0;entryDx=0;entryDy=0;" edge="1" parent="1" source="fX-Yq12S8NMqzlMYQAEy-12" target="fX-Yq12S8NMqzlMYQAEy-13">
          <mxGeometry width="50" height="50" relative="1" as="geometry">
            <mxPoint x="445" y="460" as="sourcePoint" />
            <mxPoint x="495" y="410" as="targetPoint" />
          </mxGeometry>
        </mxCell>
        <mxCell id="fX-Yq12S8NMqzlMYQAEy-16" value="" style="endArrow=classic;html=1;rounded=0;exitX=0.5;exitY=1;exitDx=0;exitDy=0;entryX=0.5;entryY=0;entryDx=0;entryDy=0;" edge="1" parent="1" source="fX-Yq12S8NMqzlMYQAEy-12" target="fX-Yq12S8NMqzlMYQAEy-14">
          <mxGeometry width="50" height="50" relative="1" as="geometry">
            <mxPoint x="695" y="480" as="sourcePoint" />
            <mxPoint x="745" y="430" as="targetPoint" />
          </mxGeometry>
        </mxCell>
        <mxCell id="fX-Yq12S8NMqzlMYQAEy-19" value="" style="verticalLabelPosition=bottom;verticalAlign=top;html=1;shape=mxgraph.basic.6_point_star;fillColor=#33FF33;" vertex="1" parent="1">
          <mxGeometry x="370" y="160" width="30" height="20" as="geometry" />
        </mxCell>
        <mxCell id="fX-Yq12S8NMqzlMYQAEy-20" value="&lt;b&gt;CCMS&lt;/b&gt;" style="text;html=1;strokeColor=none;fillColor=none;align=center;verticalAlign=middle;whiteSpace=wrap;rounded=0;" vertex="1" parent="1">
          <mxGeometry x="585" y="100" width="60" height="30" as="geometry" />
        </mxCell>
      </root>
    </mxGraphModel>
  </diagram>
</mxfile>
